{"title":"Tamanchey 2014 Hindi DVDSCR-Rip Xvid MP3-TeamTNT","uid":11193220,"size":735125562,"categoryP":"video","categoryS":"movies","magnet":"?xt=urn:btih:d5b52aaecd36d07aa5f919845a09b6ec8d691b07&amp;dn=Tamanchey+2014+Hindi+DVDSCR-Rip+Xvid+MP3-TeamTNT&amp;tr=udp%3A%2F%2Ftracker.openbittorrent.com%3A80&amp;tr=udp%3A%2F%2Fopen.demonii.com%3A1337&amp;tr=udp%3A%2F%2Ftracker.coppersurfer.tk%3A6969&amp;tr=udp%3A%2F%2Fexodus.desync.com%3A6969","seeders":8,"leechers":2,"uploader":"HeroMaster","files":-1,"time":1413035123,"description":":::::::::: TeamTNT PRESENTS :::::::::\n\n &lt;a href=&quot;\nhttp://i.imgur.com/lbB8mMB.png&quot; rel=&quot;nofollow&quot; target=&quot;_NEW&quot;&gt;\nhttp://i.imgur.com/lbB8mMB.png&lt;/a&gt;\n\n\n:::: Tamanchey 2014 Hindi DVDSCR-Rip Xvid MP3 ::::\n\n\n::Information::\n\n\nTamanchey\n(2014)\n[1CD] DVDSCR Rip Xvid Mp3 \nTEAMTNT Exclusive\n\n\nMovie:............Tamanchey \nSource: ..........DVDSCR @ TeamTNT\nYear:.............2014\n\n\n::More Information::\n\n\nGeneral\nComplete name : E:Tamanchey.avi\nFormat : AVI\nFormat/Info : Audio Video Interleave\nFile size : 694 MiB\nDuration : 1h 45mn\nOverall bit rate : 919 Kbps\n\nVideo\nID : 0\nFormat : MPEG-4 Visual\nFormat profile : Advanced Simple@L5\nFormat settings, BVOP : 2\nFormat settings, QPel : No\nFormat settings, GMC : No warppoints\nFormat settings, Matrix : Default (H.263)\nCodec ID : XVID\nCodec ID/Hint : XviD\nDuration : 1h 45mn\nBit rate : 817 Kbps\nWidth : 640 pixels\nHeight : 272 pixels\nDisplay aspect ratio : 2.35:1\nFrame rate : 23.976 fps\nColor space : YUV\nChroma subsampling : 4:2:0\nBit depth : 8 bits\nScan type : Progressive\nCompression mode : Lossy\nBits/(Pixel*Frame) : 0.196\nStream size : 617 MiB (89%)\nWriting library : XviD 1.2.1 (UTC 2008-12-04)\n\nAudio\nID : 1\nFormat : MPEG Audio\nFormat version : Version 1\nFormat profile : Layer 3\nMode : Joint stereo\nMode extension : MS Stereo\nCodec ID : 55\nCodec ID/Hint : MP3\nDuration : 1h 45mn\nBit rate mode : Constant\nBit rate : 96.0 Kbps\nChannel(s) : 2 channels\nSampling rate : 32.0 KHz\nCompression mode : Lossy\nStream size : 72.5 MiB (10%)\nAlignment : Aligned on interleaves\nInterleave, duration : 167 ms (4.00 video frames)\nInterleave, preload duration : 216 ms\nTitle : VTS_01_1 T80 2_0ch 192Kbps DELAY 0ms_new\n\n\n::IMDB::\n\n &lt;a href=&quot;\nhttp://www.imdb.com/title/tt2317135/&quot; rel=&quot;nofollow&quot; target=&quot;_NEW&quot;&gt;\nhttp://www.imdb.com/title/tt2317135/&lt;/a&gt;\n\n\n::Greetz and Respect::\n\n\nALL CREDIT GOES TO Studio for Encoding and BollyTNT for Distribution.\n\n\n::Poster::\n\n &lt;a href=&quot;\nhttp://i.imgur.com/m32ZAQf.jpg&quot; rel=&quot;nofollow&quot; target=&quot;_NEW&quot;&gt;\nhttp://i.imgur.com/m32ZAQf.jpg&lt;/a&gt;\n\n\n::Screenshots::\n\n &lt;a href=&quot;\nhttp://i.imgur.com/lpVj3Ke.jpg&quot; rel=&quot;nofollow&quot; target=&quot;_NEW&quot;&gt;\nhttp://i.imgur.com/lpVj3Ke.jpg&lt;/a&gt;\n\n &lt;a href=&quot;\nhttp://i.imgur.com/VRZMtlv.jpg&quot; rel=&quot;nofollow&quot; target=&quot;_NEW&quot;&gt;\nhttp://i.imgur.com/VRZMtlv.jpg&lt;/a&gt;\n\n &lt;a href=&quot;\nhttp://i.imgur.com/JybmplK.jpg&quot; rel=&quot;nofollow&quot; target=&quot;_NEW&quot;&gt;\nhttp://i.imgur.com/JybmplK.jpg&lt;/a&gt;\n\n\nSEED AND ENJOY!","torrent":{"xt":"urn:btih:d5b52aaecd36d07aa5f919845a09b6ec8d691b07","amp;dn":"Tamanchey+2014+Hindi+DVDSCR-Rip+Xvid+MP3-TeamTNT","amp;tr":["udp%3A%2F%2Ftracker.openbittorrent.com%3A80","udp%3A%2F%2Fopen.demonii.com%3A1337","udp%3A%2F%2Ftracker.coppersurfer.tk%3A6969","udp%3A%2F%2Fexodus.desync.com%3A6969"],"infoHash":"d5b52aaecd36d07aa5f919845a09b6ec8d691b07","infoHashBuffer":{"type":"Buffer","data":[213,181,42,174,205,54,208,122,165,249,25,132,90,9,182,236,141,105,27,7]},"announce":[],"urlList":[]}}